<svg width="32" height="179" viewBox="0 0 32 179" fill="none" xmlns="http://www.w3.org/2000/svg">
<path opacity="0.4" d="M4.296 17.6C4.296 16.752 4.376 15.984 4.536 15.296C4.696 14.592 4.928 13.992 5.232 13.496C5.536 12.984 5.896 12.592 6.312 12.32C6.728 12.048 7.192 11.912 7.704 11.912C8.232 11.912 8.704 12.048 9.12 12.32C9.536 12.592 9.896 12.984 10.2 13.496C10.504 13.992 10.736 14.592 10.896 15.296C11.056 15.984 11.136 16.752 11.136 17.6C11.136 18.448 11.056 19.224 10.896 19.928C10.736 20.616 10.504 21.216 10.2 21.728C9.896 22.224 9.536 22.608 9.12 22.88C8.704 23.152 8.232 23.288 7.704 23.288C7.192 23.288 6.728 23.152 6.312 22.88C5.896 22.608 5.536 22.224 5.232 21.728C4.928 21.216 4.696 20.616 4.536 19.928C4.376 19.224 4.296 18.448 4.296 17.6ZM0.96 17.6C0.96 19.376 1.24 20.912 1.8 22.208C2.376 23.504 3.168 24.512 4.176 25.232C5.2 25.936 6.376 26.288 7.704 26.288C9.08 26.288 10.272 25.936 11.28 25.232C12.288 24.512 13.072 23.504 13.632 22.208C14.192 20.912 14.472 19.376 14.472 17.6C14.472 15.824 14.192 14.288 13.632 12.992C13.072 11.696 12.288 10.696 11.28 9.992C10.272 9.272 9.08 8.912 7.704 8.912C6.376 8.912 5.2 9.272 4.176 9.992C3.168 10.696 2.376 11.696 1.8 12.992C1.24 14.288 0.96 15.824 0.96 17.6ZM15.8059 22.904H30.3979V19.976H26.9659L26.5579 20.336H20.5579L24.5179 14.672V21.512L24.2299 21.776V26H27.7579V9.2H25.4299L15.8059 22.904Z" fill="black"/>
<line opacity="0.4" x1="14" y1="41" x2="14" y2="179" stroke="black" stroke-width="2"/>
</svg>
