<svg width="18" height="56" viewBox="0 0 18 56" fill="none" xmlns="http://www.w3.org/2000/svg">
<path opacity="0.4" d="M2.685 10.75C2.685 10.22 2.735 9.74 2.835 9.31C2.935 8.87 3.08 8.495 3.27 8.185C3.46 7.865 3.685 7.62 3.945 7.45C4.205 7.28 4.495 7.195 4.815 7.195C5.145 7.195 5.44 7.28 5.7 7.45C5.96 7.62 6.185 7.865 6.375 8.185C6.565 8.495 6.71 8.87 6.81 9.31C6.91 9.74 6.96 10.22 6.96 10.75C6.96 11.28 6.91 11.765 6.81 12.205C6.71 12.635 6.565 13.01 6.375 13.33C6.185 13.64 5.96 13.88 5.7 14.05C5.44 14.22 5.145 14.305 4.815 14.305C4.495 14.305 4.205 14.22 3.945 14.05C3.685 13.88 3.46 13.64 3.27 13.33C3.08 13.01 2.935 12.635 2.835 12.205C2.735 11.765 2.685 11.28 2.685 10.75ZM0.6 10.75C0.6 11.86 0.775 12.82 1.125 13.63C1.485 14.44 1.98 15.07 2.61 15.52C3.25 15.96 3.985 16.18 4.815 16.18C5.675 16.18 6.42 15.96 7.05 15.52C7.68 15.07 8.17 14.44 8.52 13.63C8.87 12.82 9.045 11.86 9.045 10.75C9.045 9.64 8.87 8.68 8.52 7.87C8.17 7.06 7.68 6.435 7.05 5.995C6.42 5.545 5.675 5.32 4.815 5.32C3.985 5.32 3.25 5.545 2.61 5.995C1.98 6.435 1.485 7.06 1.125 7.87C0.775 8.68 0.6 9.64 0.6 10.75ZM10.7037 8.23L13.2237 7.57V16H15.3087V5.32L10.7037 6.295V8.23Z" fill="#4F4F4F"/>
<line opacity="0.4" x1="9" y1="24" x2="9" y2="56" stroke="#828282" stroke-width="2"/>
</svg>
