<svg width="19" height="56" viewBox="0 0 19 56" fill="none" xmlns="http://www.w3.org/2000/svg">
<path opacity="0.4" d="M2.685 10.75C2.685 10.22 2.735 9.74 2.835 9.31C2.935 8.87 3.08 8.495 3.27 8.185C3.46 7.865 3.685 7.62 3.945 7.45C4.205 7.28 4.495 7.195 4.815 7.195C5.145 7.195 5.44 7.28 5.7 7.45C5.96 7.62 6.185 7.865 6.375 8.185C6.565 8.495 6.71 8.87 6.81 9.31C6.91 9.74 6.96 10.22 6.96 10.75C6.96 11.28 6.91 11.765 6.81 12.205C6.71 12.635 6.565 13.01 6.375 13.33C6.185 13.64 5.96 13.88 5.7 14.05C5.44 14.22 5.145 14.305 4.815 14.305C4.495 14.305 4.205 14.22 3.945 14.05C3.685 13.88 3.46 13.64 3.27 13.33C3.08 13.01 2.935 12.635 2.835 12.205C2.735 11.765 2.685 11.28 2.685 10.75ZM0.6 10.75C0.6 11.86 0.775 12.82 1.125 13.63C1.485 14.44 1.98 15.07 2.61 15.52C3.25 15.96 3.985 16.18 4.815 16.18C5.675 16.18 6.42 15.96 7.05 15.52C7.68 15.07 8.17 14.44 8.52 13.63C8.87 12.82 9.045 11.86 9.045 10.75C9.045 9.64 8.87 8.68 8.52 7.87C8.17 7.06 7.68 6.435 7.05 5.995C6.42 5.545 5.675 5.32 4.815 5.32C3.985 5.32 3.25 5.545 2.61 5.995C1.98 6.435 1.485 7.06 1.125 7.87C0.775 8.68 0.6 9.64 0.6 10.75ZM13.6587 10.885C14.4487 10.885 15.1537 10.78 15.7737 10.57C16.3937 10.36 16.8837 10.055 17.2437 9.655C17.6037 9.245 17.7837 8.755 17.7837 8.185C17.7837 7.655 17.6487 7.175 17.3787 6.745C17.1087 6.315 16.7137 5.97 16.1937 5.71C15.6837 5.45 15.0637 5.32 14.3337 5.32C13.6437 5.32 13.0387 5.455 12.5187 5.725C11.9987 5.995 11.5887 6.365 11.2887 6.835C10.9987 7.295 10.8537 7.825 10.8537 8.425H12.8487C12.8487 8.035 12.9887 7.715 13.2687 7.465C13.5587 7.205 13.9137 7.075 14.3337 7.075C14.6337 7.075 14.8787 7.125 15.0687 7.225C15.2587 7.325 15.4037 7.47 15.5037 7.66C15.6037 7.85 15.6537 8.07 15.6537 8.32C15.6537 8.52 15.6037 8.715 15.5037 8.905C15.4137 9.085 15.2837 9.25 15.1137 9.4C14.9437 9.54 14.7337 9.65 14.4837 9.73C14.2437 9.81 13.9687 9.85 13.6587 9.85V10.885ZM14.2437 16.21C15.0237 16.21 15.6987 16.085 16.2687 15.835C16.8487 15.575 17.2937 15.215 17.6037 14.755C17.9237 14.295 18.0837 13.765 18.0837 13.165C18.0837 12.635 17.9737 12.185 17.7537 11.815C17.5337 11.435 17.2237 11.125 16.8237 10.885C16.4237 10.635 15.9537 10.455 15.4137 10.345C14.8837 10.235 14.2987 10.18 13.6587 10.18V11.32C14.0287 11.32 14.3537 11.36 14.6337 11.44C14.9237 11.51 15.1637 11.615 15.3537 11.755C15.5537 11.895 15.7037 12.07 15.8037 12.28C15.9037 12.48 15.9537 12.7 15.9537 12.94C15.9537 13.27 15.8837 13.545 15.7437 13.765C15.6037 13.985 15.4087 14.155 15.1587 14.275C14.9187 14.385 14.6337 14.44 14.3037 14.44C13.9837 14.44 13.6887 14.38 13.4187 14.26C13.1487 14.13 12.9337 13.945 12.7737 13.705C12.6137 13.465 12.5337 13.175 12.5337 12.835H10.4037C10.4037 13.285 10.4937 13.715 10.6737 14.125C10.8537 14.525 11.1087 14.885 11.4387 15.205C11.7687 15.515 12.1687 15.76 12.6387 15.94C13.1087 16.12 13.6437 16.21 14.2437 16.21Z" fill="#4F4F4F"/>
<line opacity="0.4" x1="9" y1="24" x2="9" y2="56" stroke="#828282" stroke-width="2"/>
</svg>
