<svg width="240" height="57" viewBox="0 0 240 57" fill="none" xmlns="http://www.w3.org/2000/svg">
<g id="Group">
<path id="Fill 1" fill-rule="evenodd" clip-rule="evenodd" d="M51.0664 18.9678H53.5514L59.4087 35.5906L59.4682 35.5313L59.3794 31.1165V18.9678H61.3614V38.7313H58.8764L53.0189 22.079L52.9599 22.1381L53.0485 26.6125V38.7313H51.0664V18.9678Z" fill="#333333"/>
<path id="Fill 2" fill-rule="evenodd" clip-rule="evenodd" d="M76.0652 21.605H76.0063L73.8169 30.8498H78.2543L76.0652 21.605ZM73.3436 32.6277L71.8052 39.1166L69.8525 38.5835L74.8524 18.9678H77.2189L82.2187 38.5835L80.266 39.1166L78.7276 32.6277H73.3436Z" fill="#333333"/>
<path id="Fill 3" fill-rule="evenodd" clip-rule="evenodd" d="M94.9102 20.7456H90.6499V18.9678H101.064V20.7456H96.8922V38.7313H94.9102V20.7456Z" fill="#333333"/>
<path id="Fill 4" fill-rule="evenodd" clip-rule="evenodd" d="M114.732 20.7456H110.472V18.9678H120.885V20.7456H116.714V38.7313H114.732V20.7456Z" fill="#333333"/>
<path id="Fill 5" fill-rule="evenodd" clip-rule="evenodd" d="M131.27 18.9678H140.884V20.7456H133.252V27.2642H139.553V29.0423H133.252V36.9535H140.884V38.7313H131.27V18.9678Z" fill="#333333"/>
<g id="Group 26">
<path id="Fill 6" fill-rule="evenodd" clip-rule="evenodd" d="M153.221 28.1533H156.12C157.836 28.1533 158.901 26.8792 158.901 24.2123C158.901 21.6347 157.659 20.7456 155.647 20.7456H153.221V28.1533ZM151.239 18.9678H156.564C158.517 18.9678 160.972 20.6566 160.972 24.2123C160.972 26.6421 159.996 28.9533 157.57 29.7828L161.652 38.2572L159.878 39.1166L155.44 29.9311H153.221V38.7313H151.239V18.9678Z" fill="#333333"/>
<path id="Fill 8" fill-rule="evenodd" clip-rule="evenodd" d="M176.149 36.9535C177.924 36.9535 179.137 35.6497 179.137 32.7754C179.137 29.8421 177.687 28.8644 175.617 28.8644H173.457V36.9535H176.149ZM175.232 27.0865C177.273 27.0865 178.22 26.0198 178.22 23.9456C178.22 21.516 177.007 20.7456 174.611 20.7456H173.457V27.0865H175.232ZM169.877 38.7313V36.9535H171.475V20.7456H169.877V18.9678H175.912C178.072 18.9678 180.291 20.7753 180.291 23.9456C180.291 25.5754 179.64 26.9679 178.19 27.768C180.409 28.7457 181.208 30.4348 181.208 32.8054C181.208 36.9238 178.96 38.7313 176.238 38.7313H169.877Z" fill="#333333"/>
<path id="Fill 10" fill-rule="evenodd" clip-rule="evenodd" d="M194.994 21.605H194.935L192.746 30.8498H197.184L194.994 21.605ZM192.273 32.6277L190.734 39.1166L188.782 38.5835L193.782 18.9678H196.148L201.148 38.5835L199.195 39.1166L197.657 32.6277H192.273Z" fill="#333333"/>
<path id="Fill 12" fill-rule="evenodd" clip-rule="evenodd" d="M217.627 23.4716C217.301 22.0198 216.591 20.568 214.905 20.568C213.041 20.568 212.301 22.0791 212.301 23.7383C212.301 25.3384 212.627 25.8422 215.733 27.7087C218.159 29.1608 219.816 30.3756 219.816 33.4275C219.816 36.5388 218.159 38.9981 214.846 38.9981C211.355 38.9981 210.083 36.6869 209.787 33.5462L211.769 33.2792C212.035 35.4721 212.509 37.1313 214.905 37.1313C216.621 37.1313 217.834 35.9758 217.834 33.6053C217.834 30.998 216.148 30.1089 214.106 28.9238C211.828 27.5903 210.319 26.642 210.319 23.7383C210.319 21.0714 212.095 18.7012 214.905 18.7012C217.686 18.7012 219.047 20.6864 219.55 23.1753L217.627 23.4716Z" fill="#333333"/>
<g id="Group 16">
<mask id="mask0_321_4107" style="mask-type:luminance" maskUnits="userSpaceOnUse" x="230" y="18" width="10" height="21">
<path id="Clip 15" fill-rule="evenodd" clip-rule="evenodd" d="M230.377 18.9678H239.992V38.7313H230.377V18.9678Z" fill="white"/>
</mask>
<g mask="url(#mask0_321_4107)">
<path id="Fill 14" fill-rule="evenodd" clip-rule="evenodd" d="M230.377 18.9678H239.992V20.7456H232.36V27.2642H238.661V29.0423H232.36V36.9535H239.992V38.7313H230.377V18.9678Z" fill="#333333"/>
</g>
</g>
<g id="Group 19">
<mask id="mask1_321_4107" style="mask-type:luminance" maskUnits="userSpaceOnUse" x="0" y="0" width="39" height="22">
<path id="Clip 18" fill-rule="evenodd" clip-rule="evenodd" d="M0.0708008 0H38.8213V21.6685H0.0708008V0Z" fill="white"/>
</mask>
<g mask="url(#mask1_321_4107)">
<path id="Fill 17" fill-rule="evenodd" clip-rule="evenodd" d="M4.44514 15.7441L4.39672 15.7114L4.46574 15.6644L4.51466 15.6972L4.44514 15.7441ZM4.60453 21.6685L4.64599 16.3397L19.0022 6.63315L25.8901 11.0869L34.2363 16.432L34.2711 21.5055L38.8213 18.5954L38.7762 12.7995L27.874 5.81735L18.8773 0L0.124878 12.6785L0.0708008 18.5954L4.60453 21.6685Z" fill="#333333"/>
</g>
</g>
<path id="Fill 20" fill-rule="evenodd" clip-rule="evenodd" d="M7.98852 38.1561L8.09152 38.0866L8.01952 38.0381L7.91602 38.1071L7.98852 38.1561Z" fill="#333333"/>
<path id="Fill 22" fill-rule="evenodd" clip-rule="evenodd" d="M4.44489 41.1013L4.39648 41.0686L4.46549 41.0216L4.51442 41.0544L4.44489 41.1013ZM0 38.1567L0.0759657 43.9526L18.8555 56.5917L38.7935 43.9526L38.8161 38.1567L34.2672 35.251L34.2497 40.2822L18.9858 49.9585L4.60867 40.2822L4.58189 35.4692L0 38.1567Z" fill="#333333"/>
<path id="Fill 24" fill-rule="evenodd" clip-rule="evenodd" d="M7.98852 18.744L8.09152 18.6745L8.01952 18.626L7.91602 18.695L7.98852 18.744Z" fill="#333333"/>
</g>
</g>
</svg>
