<svg width="30" height="179" viewBox="0 0 30 179" fill="none" xmlns="http://www.w3.org/2000/svg">
<path opacity="0.4" d="M13.6992 14.5508C13.6992 17.3477 13.1406 19.5312 12.0234 21.1016C10.9062 22.6719 9.35547 23.457 7.37109 23.457C5.37109 23.457 3.8125 22.6797 2.69531 21.125C1.58594 19.5625 1.03125 17.3711 1.03125 14.5508C1.03125 11.7695 1.58984 9.59375 2.70703 8.02344C3.83203 6.45312 5.38672 5.66797 7.37109 5.66797C9.37891 5.66797 10.9336 6.44531 12.0352 8C13.1445 9.54688 13.6992 11.7305 13.6992 14.5508ZM4.58203 14.5742C4.58203 16.418 4.82031 17.832 5.29688 18.8164C5.77344 19.8008 6.45703 20.293 7.34766 20.293C8.26172 20.293 8.95312 19.8047 9.42188 18.8281C9.89062 17.8516 10.125 16.418 10.125 14.5273C10.125 12.6602 9.89062 11.2422 9.42188 10.2734C8.95312 9.30469 8.26953 8.82031 7.37109 8.82031C6.46484 8.82031 5.77344 9.3125 5.29688 10.2969C4.82031 11.2812 4.58203 12.707 4.58203 14.5742ZM20.7188 23V8.89062H17.2852L18.7266 6.00781H24.1758V23H20.7188Z" fill="black"/>
<line opacity="0.4" x1="14" y1="41" x2="14" y2="179" stroke="black" stroke-width="2"/>
</svg>
