<svg width="56" height="48" viewBox="0 0 56 48" fill="none" xmlns="http://www.w3.org/2000/svg">
<path d="M49.3333 25V46.3333" stroke="#272E35" stroke-width="3" stroke-linecap="round" stroke-linejoin="round"/>
<path d="M35.1987 32.1167V46.33" stroke="#272E35" stroke-width="3" stroke-linecap="round" stroke-linejoin="round"/>
<path d="M6.66675 38.3335V46.3335" stroke="#272E35" stroke-width="3" stroke-linecap="round" stroke-linejoin="round"/>
<path d="M20.7981 29.2627V46.3294" stroke="#272E35" stroke-width="3" stroke-linecap="round" stroke-linejoin="round"/>
<path d="M38.5038 15.6896C40.3263 17.512 40.3263 20.4668 38.5038 22.2892C36.6814 24.1117 33.7266 24.1117 31.9042 22.2892C30.0817 20.4668 30.0817 17.512 31.9042 15.6896C33.7266 13.8671 36.6814 13.8671 38.5038 15.6896Z" stroke="#272E35" stroke-width="3" stroke-linecap="round" stroke-linejoin="round"/>
<path d="M52.914 3.68031C54.7364 5.50276 54.7364 8.45754 52.914 10.28C51.0915 12.1024 48.1368 12.1024 46.3143 10.28C44.4919 8.45752 44.4919 5.50274 46.3143 3.68031C48.1368 1.85786 51.0916 1.85786 52.914 3.68031Z" stroke="#272E35" stroke-width="3" stroke-linecap="round" stroke-linejoin="round"/>
<path d="M9.68573 18.0748C11.5082 19.8973 11.5082 22.8521 9.68573 24.6745C7.86328 26.4969 4.9085 26.4969 3.08607 24.6745C1.26363 22.852 1.26363 19.8973 3.08607 18.0748C4.90852 16.2524 7.8633 16.2524 9.68573 18.0748" stroke="#272E35" stroke-width="3" stroke-linecap="round" stroke-linejoin="round"/>
<path d="M24.0969 6.06605C25.9193 7.8885 25.9193 10.8433 24.0969 12.6657C22.2744 14.4882 19.3196 14.4882 17.4972 12.6657C15.6748 10.8433 15.6748 7.88848 17.4972 6.06605C19.3197 4.24361 22.2744 4.24361 24.0969 6.06605Z" stroke="#272E35" stroke-width="3" stroke-linecap="round" stroke-linejoin="round"/>
<path d="M46.0517 9.95898L38.7717 16.0123" stroke="#272E35" stroke-width="3" stroke-linecap="round" stroke-linejoin="round"/>
<path d="M31.3067 16.4123L24.6667 11.959" stroke="#272E35" stroke-width="3" stroke-linecap="round" stroke-linejoin="round"/>
<path d="M9.97363 18.4098L17.227 12.3564" stroke="#272E35" stroke-width="3" stroke-linecap="round" stroke-linejoin="round"/>
</svg>
