<svg width="30" height="179" viewBox="0 0 30 179" fill="none" xmlns="http://www.w3.org/2000/svg">
<path opacity="0.4" d="M4.296 17.6C4.296 16.752 4.376 15.984 4.536 15.296C4.696 14.592 4.928 13.992 5.232 13.496C5.536 12.984 5.896 12.592 6.312 12.32C6.728 12.048 7.192 11.912 7.704 11.912C8.232 11.912 8.704 12.048 9.12 12.32C9.536 12.592 9.896 12.984 10.2 13.496C10.504 13.992 10.736 14.592 10.896 15.296C11.056 15.984 11.136 16.752 11.136 17.6C11.136 18.448 11.056 19.224 10.896 19.928C10.736 20.616 10.504 21.216 10.2 21.728C9.896 22.224 9.536 22.608 9.12 22.88C8.704 23.152 8.232 23.288 7.704 23.288C7.192 23.288 6.728 23.152 6.312 22.88C5.896 22.608 5.536 22.224 5.232 21.728C4.928 21.216 4.696 20.616 4.536 19.928C4.376 19.224 4.296 18.448 4.296 17.6ZM0.96 17.6C0.96 19.376 1.24 20.912 1.8 22.208C2.376 23.504 3.168 24.512 4.176 25.232C5.2 25.936 6.376 26.288 7.704 26.288C9.08 26.288 10.272 25.936 11.28 25.232C12.288 24.512 13.072 23.504 13.632 22.208C14.192 20.912 14.472 19.376 14.472 17.6C14.472 15.824 14.192 14.288 13.632 12.992C13.072 11.696 12.288 10.696 11.28 9.992C10.272 9.272 9.08 8.912 7.704 8.912C6.376 8.912 5.2 9.272 4.176 9.992C3.168 10.696 2.376 11.696 1.8 12.992C1.24 14.288 0.96 15.824 0.96 17.6ZM21.8539 17.816C23.1179 17.816 24.2459 17.648 25.2379 17.312C26.2299 16.976 27.0139 16.488 27.5899 15.848C28.1659 15.192 28.4539 14.408 28.4539 13.496C28.4539 12.648 28.2379 11.88 27.8059 11.192C27.3739 10.504 26.7419 9.952 25.9099 9.536C25.0939 9.12 24.1019 8.912 22.9339 8.912C21.8299 8.912 20.8619 9.128 20.0299 9.56C19.1979 9.992 18.5419 10.584 18.0619 11.336C17.5979 12.072 17.3659 12.92 17.3659 13.88H20.5579C20.5579 13.256 20.7819 12.744 21.2299 12.344C21.6939 11.928 22.2619 11.72 22.9339 11.72C23.4139 11.72 23.8059 11.8 24.1099 11.96C24.4139 12.12 24.6459 12.352 24.8059 12.656C24.9659 12.96 25.0459 13.312 25.0459 13.712C25.0459 14.032 24.9659 14.344 24.8059 14.648C24.6619 14.936 24.4539 15.2 24.1819 15.44C23.9099 15.664 23.5739 15.84 23.1739 15.968C22.7899 16.096 22.3499 16.16 21.8539 16.16V17.816ZM22.7899 26.336C24.0379 26.336 25.1179 26.136 26.0299 25.736C26.9579 25.32 27.6699 24.744 28.1659 24.008C28.6779 23.272 28.9339 22.424 28.9339 21.464C28.9339 20.616 28.7579 19.896 28.4059 19.304C28.0539 18.696 27.5579 18.2 26.9179 17.816C26.2779 17.416 25.5259 17.128 24.6619 16.952C23.8139 16.776 22.8779 16.688 21.8539 16.688V18.512C22.4459 18.512 22.9659 18.576 23.4139 18.704C23.8779 18.816 24.2619 18.984 24.5659 19.208C24.8859 19.432 25.1259 19.712 25.2859 20.048C25.4459 20.368 25.5259 20.72 25.5259 21.104C25.5259 21.632 25.4139 22.072 25.1899 22.424C24.9659 22.776 24.6539 23.048 24.2539 23.24C23.8699 23.416 23.4139 23.504 22.8859 23.504C22.3739 23.504 21.9019 23.408 21.4699 23.216C21.0379 23.008 20.6939 22.712 20.4379 22.328C20.1819 21.944 20.0539 21.48 20.0539 20.936H16.6459C16.6459 21.656 16.7899 22.344 17.0779 23C17.3659 23.64 17.7739 24.216 18.3019 24.728C18.8299 25.224 19.4699 25.616 20.2219 25.904C20.9739 26.192 21.8299 26.336 22.7899 26.336Z" fill="black"/>
<line opacity="0.4" x1="14" y1="41" x2="14" y2="179" stroke="black" stroke-width="2"/>
</svg>
