<svg width="31" height="179" viewBox="0 0 31 179" fill="none" xmlns="http://www.w3.org/2000/svg">
<path opacity="0.4" d="M4.296 17.6C4.296 16.752 4.376 15.984 4.536 15.296C4.696 14.592 4.928 13.992 5.232 13.496C5.536 12.984 5.896 12.592 6.312 12.32C6.728 12.048 7.192 11.912 7.704 11.912C8.232 11.912 8.704 12.048 9.12 12.32C9.536 12.592 9.896 12.984 10.2 13.496C10.504 13.992 10.736 14.592 10.896 15.296C11.056 15.984 11.136 16.752 11.136 17.6C11.136 18.448 11.056 19.224 10.896 19.928C10.736 20.616 10.504 21.216 10.2 21.728C9.896 22.224 9.536 22.608 9.12 22.88C8.704 23.152 8.232 23.288 7.704 23.288C7.192 23.288 6.728 23.152 6.312 22.88C5.896 22.608 5.536 22.224 5.232 21.728C4.928 21.216 4.696 20.616 4.536 19.928C4.376 19.224 4.296 18.448 4.296 17.6ZM0.96 17.6C0.96 19.376 1.24 20.912 1.8 22.208C2.376 23.504 3.168 24.512 4.176 25.232C5.2 25.936 6.376 26.288 7.704 26.288C9.08 26.288 10.272 25.936 11.28 25.232C12.288 24.512 13.072 23.504 13.632 22.208C14.192 20.912 14.472 19.376 14.472 17.6C14.472 15.824 14.192 14.288 13.632 12.992C13.072 11.696 12.288 10.696 11.28 9.992C10.272 9.272 9.08 8.912 7.704 8.912C6.376 8.912 5.2 9.272 4.176 9.992C3.168 10.696 2.376 11.696 1.8 12.992C1.24 14.288 0.96 15.824 0.96 17.6ZM15.9019 26H29.4139V22.856H22.3819L26.7499 18.728C27.4539 18.088 28.0219 17.376 28.4539 16.592C28.8859 15.808 29.1019 14.968 29.1019 14.072C29.1019 13.464 28.9739 12.856 28.7179 12.248C28.4779 11.64 28.1019 11.088 27.5899 10.592C27.0939 10.08 26.4619 9.672 25.6939 9.368C24.9419 9.048 24.0619 8.888 23.0539 8.888C21.6939 8.888 20.5419 9.176 19.5979 9.752C18.6699 10.312 17.9659 11.072 17.4859 12.032C17.0059 12.992 16.7659 14.072 16.7659 15.272H20.1259C20.1259 14.6 20.2379 14.008 20.4619 13.496C20.7019 12.984 21.0299 12.592 21.4459 12.32C21.8779 12.032 22.3899 11.888 22.9819 11.888C23.3979 11.888 23.7659 11.96 24.0859 12.104C24.4059 12.232 24.6779 12.408 24.9019 12.632C25.1259 12.856 25.2939 13.112 25.4059 13.4C25.5179 13.688 25.5739 13.984 25.5739 14.288C25.5739 14.72 25.4939 15.136 25.3339 15.536C25.1739 15.936 24.9419 16.336 24.6379 16.736C24.3339 17.136 23.9659 17.568 23.5339 18.032L15.9019 26Z" fill="black"/>
<line opacity="0.4" x1="14" y1="41" x2="14" y2="179" stroke="black" stroke-width="2"/>
</svg>
