<svg width="60" height="52" viewBox="0 0 60 52" fill="none" xmlns="http://www.w3.org/2000/svg">
<path d="M2 24L6 20L10 24" stroke="#272E35" stroke-width="3" stroke-linecap="round" stroke-linejoin="round"/>
<path d="M58 28L54 32L50 28" stroke="#272E35" stroke-width="3" stroke-linecap="round" stroke-linejoin="round"/>
<path d="M10.4741 12.1067C14.8261 6.00267 21.9328 2 29.9995 2C43.2528 2 53.9995 12.7467 53.9995 26C53.9995 27.824 53.7781 29.5947 53.3941 31.3013" stroke="#272E35" stroke-width="3" stroke-linecap="round" stroke-linejoin="round"/>
<path d="M49.5248 12.105C43.3861 14.169 36.8341 15.3316 29.9995 15.3316C23.1648 15.3316 16.6128 14.169 10.4741 12.105" stroke="#272E35" stroke-width="3" stroke-linecap="round" stroke-linejoin="round"/>
<path d="M49.5148 39.8822C45.1655 45.9862 38.0588 49.9888 29.9895 49.9888C16.7362 49.9888 5.9895 39.2422 5.9895 25.9888C5.9895 24.1648 6.21084 22.3942 6.59484 20.6875" stroke="#272E35" stroke-width="3" stroke-linecap="round" stroke-linejoin="round"/>
<path d="M10.468 39.8829C16.6067 37.8189 23.1587 36.6562 29.9934 36.6562C36.828 36.6562 43.38 37.8189 49.5187 39.8829" stroke="#272E35" stroke-width="3" stroke-linecap="round" stroke-linejoin="round"/>
<path d="M30 50C35.5228 50 40 39.2548 40 26C40 12.7452 35.5228 2 30 2C24.4772 2 20 12.7452 20 26C20 39.2548 24.4772 50 30 50Z" stroke="#272E35" stroke-width="3" stroke-linecap="round" stroke-linejoin="round"/>
</svg>
